<mxfile host="Electron" modified="2024-02-05T15:50:43.257Z" agent="Mozilla/5.0 (Windows NT 10.0; Win64; x64) AppleWebKit/537.36 (KHTML, like Gecko) draw.io/22.1.16 Chrome/120.0.6099.109 Electron/28.1.0 Safari/537.36" etag="l8rhNk46rQpS6o3r1-Xh" version="22.1.16" type="device" pages="2">
  <diagram name="Initialisierung" id="_fEl9FvCp6NbFvuwMf_H">
    <mxGraphModel dx="2954" dy="1204" grid="1" gridSize="10" guides="1" tooltips="1" connect="1" arrows="1" fold="1" page="1" pageScale="1" pageWidth="827" pageHeight="1169" math="0" shadow="0">
      <root>
        <mxCell id="0" />
        <mxCell id="1" parent="0" />
        <mxCell id="9NLW_SvuR_FlKUUrzjU4-16" value="Minecraft Instanz" style="swimlane;childLayout=stackLayout;resizeParent=1;resizeParentMax=0;startSize=20;html=1;" parent="1" vertex="1">
          <mxGeometry x="160" y="160" width="430" height="540" as="geometry" />
        </mxCell>
        <mxCell id="9NLW_SvuR_FlKUUrzjU4-17" value="Foge" style="swimlane;startSize=20;html=1;" parent="9NLW_SvuR_FlKUUrzjU4-16" vertex="1">
          <mxGeometry y="20" width="230" height="520" as="geometry" />
        </mxCell>
        <mxCell id="9NLW_SvuR_FlKUUrzjU4-20" value="Spielstart" style="strokeWidth=2;html=1;shape=mxgraph.flowchart.terminator;whiteSpace=wrap;" parent="9NLW_SvuR_FlKUUrzjU4-17" vertex="1">
          <mxGeometry x="49.999999999999545" y="40" width="100" height="60" as="geometry" />
        </mxCell>
        <mxCell id="9NLW_SvuR_FlKUUrzjU4-10" value="WILD_MAGIC Register hinzufügen" style="rounded=0;whiteSpace=wrap;html=1;" parent="9NLW_SvuR_FlKUUrzjU4-17" vertex="1">
          <mxGeometry x="40" y="140" width="120" height="60" as="geometry" />
        </mxCell>
        <mxCell id="9NLW_SvuR_FlKUUrzjU4-24" value="" style="endArrow=classic;html=1;rounded=0;entryX=0;entryY=0.5;entryDx=0;entryDy=0;exitX=0.5;exitY=1;exitDx=0;exitDy=0;" parent="9NLW_SvuR_FlKUUrzjU4-17" target="9NLW_SvuR_FlKUUrzjU4-23" edge="1">
          <mxGeometry width="50" height="50" relative="1" as="geometry">
            <mxPoint x="99.71000000000004" y="200" as="sourcePoint" />
            <mxPoint x="99.71000000000004" y="240" as="targetPoint" />
            <Array as="points">
              <mxPoint x="100" y="270" />
            </Array>
          </mxGeometry>
        </mxCell>
        <mxCell id="9NLW_SvuR_FlKUUrzjU4-28" value="Instanzen speichern" style="strokeWidth=2;html=1;shape=mxgraph.flowchart.database;whiteSpace=wrap;" parent="9NLW_SvuR_FlKUUrzjU4-17" vertex="1">
          <mxGeometry x="40" y="340" width="120" height="60" as="geometry" />
        </mxCell>
        <mxCell id="9NLW_SvuR_FlKUUrzjU4-30" value="Initialisierung beenden" style="strokeWidth=2;html=1;shape=mxgraph.flowchart.terminator;whiteSpace=wrap;" parent="9NLW_SvuR_FlKUUrzjU4-17" vertex="1">
          <mxGeometry x="49.999999999999545" y="440" width="100" height="60" as="geometry" />
        </mxCell>
        <mxCell id="9NLW_SvuR_FlKUUrzjU4-31" value="" style="endArrow=classic;html=1;rounded=0;" parent="9NLW_SvuR_FlKUUrzjU4-17" source="9NLW_SvuR_FlKUUrzjU4-28" edge="1">
          <mxGeometry width="50" height="50" relative="1" as="geometry">
            <mxPoint x="99.71000000000004" y="400" as="sourcePoint" />
            <mxPoint x="100" y="440" as="targetPoint" />
            <Array as="points" />
          </mxGeometry>
        </mxCell>
        <mxCell id="9NLW_SvuR_FlKUUrzjU4-34" value="Register&amp;nbsp;" style="text;html=1;strokeColor=none;fillColor=none;align=center;verticalAlign=middle;whiteSpace=wrap;rounded=0;" parent="9NLW_SvuR_FlKUUrzjU4-17" vertex="1">
          <mxGeometry x="170" y="140" width="60" height="30" as="geometry" />
        </mxCell>
        <mxCell id="9NLW_SvuR_FlKUUrzjU4-18" value="Mod" style="swimlane;startSize=20;html=1;" parent="9NLW_SvuR_FlKUUrzjU4-16" vertex="1">
          <mxGeometry x="230" y="20" width="200" height="520" as="geometry" />
        </mxCell>
        <mxCell id="9NLW_SvuR_FlKUUrzjU4-8" value="Mod Initialisierung&amp;nbsp;" style="rounded=0;whiteSpace=wrap;html=1;" parent="9NLW_SvuR_FlKUUrzjU4-18" vertex="1">
          <mxGeometry x="39.999999999999545" y="40" width="120" height="60" as="geometry" />
        </mxCell>
        <mxCell id="9NLW_SvuR_FlKUUrzjU4-15" value="Registererstellung" style="rounded=0;whiteSpace=wrap;html=1;" parent="9NLW_SvuR_FlKUUrzjU4-18" vertex="1">
          <mxGeometry x="40" y="140" width="120" height="60" as="geometry" />
        </mxCell>
        <mxCell id="9NLW_SvuR_FlKUUrzjU4-21" value="" style="endArrow=classic;html=1;rounded=0;entryX=0.5;entryY=0;entryDx=0;entryDy=0;exitX=0.5;exitY=1;exitDx=0;exitDy=0;" parent="9NLW_SvuR_FlKUUrzjU4-18" source="9NLW_SvuR_FlKUUrzjU4-8" target="9NLW_SvuR_FlKUUrzjU4-15" edge="1">
          <mxGeometry width="50" height="50" relative="1" as="geometry">
            <mxPoint x="-40" y="80" as="sourcePoint" />
            <mxPoint x="50" y="80" as="targetPoint" />
            <Array as="points" />
          </mxGeometry>
        </mxCell>
        <mxCell id="9NLW_SvuR_FlKUUrzjU4-23" value="Alle Wild Magic Instanzen erstellen&amp;nbsp;" style="rounded=0;whiteSpace=wrap;html=1;" parent="9NLW_SvuR_FlKUUrzjU4-18" vertex="1">
          <mxGeometry x="40" y="240" width="120" height="60" as="geometry" />
        </mxCell>
        <mxCell id="9NLW_SvuR_FlKUUrzjU4-25" value="" style="endArrow=classic;html=1;rounded=0;exitX=0.5;exitY=1;exitDx=0;exitDy=0;entryX=1;entryY=0.5;entryDx=0;entryDy=0;entryPerimeter=0;" parent="9NLW_SvuR_FlKUUrzjU4-18" target="9NLW_SvuR_FlKUUrzjU4-28" edge="1">
          <mxGeometry width="50" height="50" relative="1" as="geometry">
            <mxPoint x="99.70999999999998" y="300" as="sourcePoint" />
            <mxPoint x="100" y="380" as="targetPoint" />
            <Array as="points">
              <mxPoint x="100" y="370" />
            </Array>
          </mxGeometry>
        </mxCell>
        <mxCell id="9NLW_SvuR_FlKUUrzjU4-33" value="Instanzen&amp;nbsp;" style="text;html=1;strokeColor=none;fillColor=none;align=center;verticalAlign=middle;whiteSpace=wrap;rounded=0;" parent="9NLW_SvuR_FlKUUrzjU4-18" vertex="1">
          <mxGeometry x="20" y="340" width="60" height="30" as="geometry" />
        </mxCell>
        <mxCell id="9NLW_SvuR_FlKUUrzjU4-13" value="" style="endArrow=classic;html=1;rounded=0;entryX=0;entryY=0.5;entryDx=0;entryDy=0;exitX=1;exitY=0.5;exitDx=0;exitDy=0;exitPerimeter=0;" parent="9NLW_SvuR_FlKUUrzjU4-16" source="9NLW_SvuR_FlKUUrzjU4-20" target="9NLW_SvuR_FlKUUrzjU4-8" edge="1">
          <mxGeometry width="50" height="50" relative="1" as="geometry">
            <mxPoint x="-20" y="110" as="sourcePoint" />
            <mxPoint x="-230" y="90" as="targetPoint" />
            <Array as="points" />
          </mxGeometry>
        </mxCell>
        <mxCell id="9NLW_SvuR_FlKUUrzjU4-22" value="" style="endArrow=classic;html=1;rounded=0;entryX=1;entryY=0.5;entryDx=0;entryDy=0;exitX=0;exitY=0.5;exitDx=0;exitDy=0;" parent="9NLW_SvuR_FlKUUrzjU4-16" source="9NLW_SvuR_FlKUUrzjU4-15" target="9NLW_SvuR_FlKUUrzjU4-10" edge="1">
          <mxGeometry width="50" height="50" relative="1" as="geometry">
            <mxPoint x="310" y="130" as="sourcePoint" />
            <mxPoint x="310" y="170" as="targetPoint" />
            <Array as="points" />
          </mxGeometry>
        </mxCell>
      </root>
    </mxGraphModel>
  </diagram>
  <diagram id="Wh-m5XI-SWIrlXkVBNNv" name="Spell Cast Event">
    <mxGraphModel dx="821" dy="334" grid="1" gridSize="10" guides="1" tooltips="1" connect="1" arrows="1" fold="1" page="1" pageScale="1" pageWidth="827" pageHeight="1169" math="0" shadow="0">
      <root>
        <mxCell id="0" />
        <mxCell id="1" parent="0" />
        <mxCell id="GL0XK427SejdCRj76ISj-1" value="Minecraft Instanz" style="swimlane;childLayout=stackLayout;resizeParent=1;resizeParentMax=0;startSize=20;html=1;" parent="1" vertex="1">
          <mxGeometry x="160" y="40" width="570" height="1060" as="geometry" />
        </mxCell>
        <mxCell id="GL0XK427SejdCRj76ISj-2" value="Foge" style="swimlane;startSize=20;html=1;" parent="GL0XK427SejdCRj76ISj-1" vertex="1">
          <mxGeometry y="20" width="230" height="1040" as="geometry" />
        </mxCell>
        <mxCell id="GL0XK427SejdCRj76ISj-3" value="Spell Cast Event" style="strokeWidth=2;html=1;shape=mxgraph.flowchart.terminator;whiteSpace=wrap;" parent="GL0XK427SejdCRj76ISj-2" vertex="1">
          <mxGeometry x="49.999999999999545" y="60" width="100" height="60" as="geometry" />
        </mxCell>
        <mxCell id="GL0XK427SejdCRj76ISj-26" value="Event ohne Änderung ausführen" style="strokeWidth=2;html=1;shape=mxgraph.flowchart.terminator;whiteSpace=wrap;" parent="GL0XK427SejdCRj76ISj-2" vertex="1">
          <mxGeometry x="49.999999999999545" y="150" width="100" height="60" as="geometry" />
        </mxCell>
        <mxCell id="GL0XK427SejdCRj76ISj-6" value="Instanzen laden" style="strokeWidth=2;html=1;shape=mxgraph.flowchart.database;whiteSpace=wrap;" parent="GL0XK427SejdCRj76ISj-2" vertex="1">
          <mxGeometry x="40" y="240" width="120" height="60" as="geometry" />
        </mxCell>
        <mxCell id="yDZhHcUlwSO8KXRDxBnM-27" value="Wild Magic ausführen" style="rounded=0;whiteSpace=wrap;html=1;" parent="GL0XK427SejdCRj76ISj-2" vertex="1">
          <mxGeometry x="40" y="880" width="120" height="60" as="geometry" />
        </mxCell>
        <mxCell id="yDZhHcUlwSO8KXRDxBnM-31" value="Event ausführen" style="strokeWidth=2;html=1;shape=mxgraph.flowchart.terminator;whiteSpace=wrap;" parent="GL0XK427SejdCRj76ISj-2" vertex="1">
          <mxGeometry x="49.999999999999545" y="970" width="100" height="60" as="geometry" />
        </mxCell>
        <mxCell id="yDZhHcUlwSO8KXRDxBnM-32" value="" style="endArrow=classic;html=1;rounded=0;" parent="GL0XK427SejdCRj76ISj-2" source="yDZhHcUlwSO8KXRDxBnM-27" target="yDZhHcUlwSO8KXRDxBnM-31" edge="1">
          <mxGeometry width="50" height="50" relative="1" as="geometry">
            <mxPoint x="99.80000000000001" y="980" as="sourcePoint" />
            <mxPoint x="99.80000000000001" y="1010" as="targetPoint" />
            <Array as="points" />
          </mxGeometry>
        </mxCell>
        <mxCell id="yDZhHcUlwSO8KXRDxBnM-28" value="" style="endArrow=classic;html=1;rounded=0;exitX=0.5;exitY=1;exitDx=0;exitDy=0;" parent="GL0XK427SejdCRj76ISj-2" edge="1">
          <mxGeometry width="50" height="50" relative="1" as="geometry">
            <mxPoint x="480" y="880" as="sourcePoint" />
            <mxPoint x="160" y="910" as="targetPoint" />
            <Array as="points">
              <mxPoint x="480" y="910" />
            </Array>
          </mxGeometry>
        </mxCell>
        <mxCell id="GL0XK427SejdCRj76ISj-17" value="" style="endArrow=classic;html=1;rounded=0;entryX=0;entryY=0.5;entryDx=0;entryDy=0;exitX=1;exitY=0.5;exitDx=0;exitDy=0;exitPerimeter=0;entryPerimeter=0;" parent="GL0XK427SejdCRj76ISj-1" source="GL0XK427SejdCRj76ISj-3" target="GL0XK427SejdCRj76ISj-19" edge="1">
          <mxGeometry width="50" height="50" relative="1" as="geometry">
            <mxPoint x="-20" y="110" as="sourcePoint" />
            <mxPoint x="269.99999999999955" y="90" as="targetPoint" />
            <Array as="points" />
          </mxGeometry>
        </mxCell>
        <mxCell id="vHbI4dkiorkBbuAbRPiR-2" value="" style="endArrow=classic;html=1;rounded=0;entryX=1;entryY=0.5;entryDx=0;entryDy=0;entryPerimeter=0;exitX=0.5;exitY=1;exitDx=0;exitDy=0;" parent="GL0XK427SejdCRj76ISj-1" source="GL0XK427SejdCRj76ISj-21" target="GL0XK427SejdCRj76ISj-6" edge="1">
          <mxGeometry width="50" height="50" relative="1" as="geometry">
            <mxPoint x="339.8" y="170" as="sourcePoint" />
            <mxPoint x="160" y="240" as="targetPoint" />
            <Array as="points">
              <mxPoint x="460" y="290" />
            </Array>
          </mxGeometry>
        </mxCell>
        <mxCell id="yDZhHcUlwSO8KXRDxBnM-26" value="" style="endArrow=classic;html=1;rounded=0;exitX=0.5;exitY=1;exitDx=0;exitDy=0;entryX=1;entryY=0.5;entryDx=0;entryDy=0;" parent="GL0XK427SejdCRj76ISj-1" source="yDZhHcUlwSO8KXRDxBnM-18" target="yDZhHcUlwSO8KXRDxBnM-27" edge="1">
          <mxGeometry width="50" height="50" relative="1" as="geometry">
            <mxPoint x="400" y="810" as="sourcePoint" />
            <mxPoint x="340" y="970" as="targetPoint" />
            <Array as="points">
              <mxPoint x="340" y="930" />
            </Array>
          </mxGeometry>
        </mxCell>
        <mxCell id="GL0XK427SejdCRj76ISj-10" value="Mod" style="swimlane;startSize=20;html=1;" parent="GL0XK427SejdCRj76ISj-1" vertex="1">
          <mxGeometry x="230" y="20" width="340" height="1040" as="geometry" />
        </mxCell>
        <mxCell id="GL0XK427SejdCRj76ISj-13" value="" style="endArrow=classic;html=1;rounded=0;entryX=0.5;entryY=0;entryDx=0;entryDy=0;exitX=0.5;exitY=1;exitDx=0;exitDy=0;" parent="GL0XK427SejdCRj76ISj-10" edge="1">
          <mxGeometry width="50" height="50" relative="1" as="geometry">
            <mxPoint x="99.99999999999955" y="100" as="sourcePoint" />
            <mxPoint x="100" y="140" as="targetPoint" />
            <Array as="points" />
          </mxGeometry>
        </mxCell>
        <mxCell id="GL0XK427SejdCRj76ISj-19" value="Zufallszahl zwischen 1 und 100" style="strokeWidth=2;html=1;shape=mxgraph.flowchart.decision;whiteSpace=wrap;" parent="GL0XK427SejdCRj76ISj-10" vertex="1">
          <mxGeometry x="50" y="40" width="100" height="100" as="geometry" />
        </mxCell>
        <mxCell id="GL0XK427SejdCRj76ISj-20" value="" style="endArrow=classic;html=1;rounded=0;entryX=1;entryY=0.5;entryDx=0;entryDy=0;entryPerimeter=0;" parent="GL0XK427SejdCRj76ISj-10" target="GL0XK427SejdCRj76ISj-26" edge="1">
          <mxGeometry width="50" height="50" relative="1" as="geometry">
            <mxPoint x="99.80000000000001" y="140" as="sourcePoint" />
            <mxPoint x="99.80000000000001" y="180" as="targetPoint" />
            <Array as="points">
              <mxPoint x="100" y="180" />
            </Array>
          </mxGeometry>
        </mxCell>
        <mxCell id="GL0XK427SejdCRj76ISj-21" value="WILD_MAGIC Register abfragen" style="rounded=0;whiteSpace=wrap;html=1;" parent="GL0XK427SejdCRj76ISj-10" vertex="1">
          <mxGeometry x="170" y="150" width="120" height="60" as="geometry" />
        </mxCell>
        <mxCell id="GL0XK427SejdCRj76ISj-22" value="" style="endArrow=classic;html=1;rounded=0;exitX=1;exitY=0.5;exitDx=0;exitDy=0;exitPerimeter=0;entryX=0.5;entryY=0;entryDx=0;entryDy=0;" parent="GL0XK427SejdCRj76ISj-10" source="GL0XK427SejdCRj76ISj-19" target="GL0XK427SejdCRj76ISj-21" edge="1">
          <mxGeometry width="50" height="50" relative="1" as="geometry">
            <mxPoint x="109.80000000000001" y="150" as="sourcePoint" />
            <mxPoint x="109.80000000000001" y="190" as="targetPoint" />
            <Array as="points">
              <mxPoint x="230" y="90" />
            </Array>
          </mxGeometry>
        </mxCell>
        <mxCell id="GL0XK427SejdCRj76ISj-24" value="&amp;gt; 90" style="text;html=1;strokeColor=none;fillColor=none;align=center;verticalAlign=middle;whiteSpace=wrap;rounded=0;" parent="GL0XK427SejdCRj76ISj-10" vertex="1">
          <mxGeometry x="150" y="60" width="60" height="30" as="geometry" />
        </mxCell>
        <mxCell id="GL0XK427SejdCRj76ISj-25" value="&amp;lt;= 90" style="text;html=1;strokeColor=none;fillColor=none;align=center;verticalAlign=middle;whiteSpace=wrap;rounded=0;" parent="GL0XK427SejdCRj76ISj-10" vertex="1">
          <mxGeometry x="100" y="140" width="60" height="30" as="geometry" />
        </mxCell>
        <mxCell id="vHbI4dkiorkBbuAbRPiR-3" value="Anfrage" style="text;html=1;strokeColor=none;fillColor=none;align=center;verticalAlign=middle;whiteSpace=wrap;rounded=0;" parent="GL0XK427SejdCRj76ISj-10" vertex="1">
          <mxGeometry x="170" y="240" width="60" height="30" as="geometry" />
        </mxCell>
        <mxCell id="yDZhHcUlwSO8KXRDxBnM-2" value="WM Instanzen -&amp;nbsp;mit Qualität" style="text;html=1;strokeColor=none;fillColor=none;align=center;verticalAlign=middle;whiteSpace=wrap;rounded=0;" parent="GL0XK427SejdCRj76ISj-10" vertex="1">
          <mxGeometry x="110" y="390" width="170" height="30" as="geometry" />
        </mxCell>
        <mxCell id="yDZhHcUlwSO8KXRDxBnM-3" value="Nach durchführbaren und optionalen Konditionen filtern" style="rounded=0;whiteSpace=wrap;html=1;" parent="GL0XK427SejdCRj76ISj-10" vertex="1">
          <mxGeometry x="50" y="420" width="120" height="60" as="geometry" />
        </mxCell>
        <mxCell id="yDZhHcUlwSO8KXRDxBnM-4" value="WM Instanzen -&amp;nbsp;Gefiltert" style="text;html=1;strokeColor=none;fillColor=none;align=center;verticalAlign=middle;whiteSpace=wrap;rounded=0;" parent="GL0XK427SejdCRj76ISj-10" vertex="1">
          <mxGeometry x="110" y="480" width="150" height="30" as="geometry" />
        </mxCell>
        <mxCell id="yDZhHcUlwSO8KXRDxBnM-5" value="" style="endArrow=classic;html=1;rounded=0;entryX=0.5;entryY=0;entryDx=0;entryDy=0;" parent="GL0XK427SejdCRj76ISj-10" source="yDZhHcUlwSO8KXRDxBnM-3" target="yDZhHcUlwSO8KXRDxBnM-6" edge="1">
          <mxGeometry width="50" height="50" relative="1" as="geometry">
            <mxPoint x="109.60000000000002" y="520" as="sourcePoint" />
            <mxPoint x="109.60000000000002" y="550" as="targetPoint" />
            <Array as="points" />
          </mxGeometry>
        </mxCell>
        <mxCell id="yDZhHcUlwSO8KXRDxBnM-6" value="Instanz-Liste in gewichtete Liste umwandeln" style="rounded=0;whiteSpace=wrap;html=1;" parent="GL0XK427SejdCRj76ISj-10" vertex="1">
          <mxGeometry x="50" y="510" width="120" height="60" as="geometry" />
        </mxCell>
        <mxCell id="yDZhHcUlwSO8KXRDxBnM-1" value="" style="endArrow=classic;html=1;rounded=0;exitX=0.5;exitY=1;exitDx=0;exitDy=0;entryX=0.5;entryY=0;entryDx=0;entryDy=0;" parent="GL0XK427SejdCRj76ISj-10" source="vHbI4dkiorkBbuAbRPiR-4" target="yDZhHcUlwSO8KXRDxBnM-3" edge="1">
          <mxGeometry width="50" height="50" relative="1" as="geometry">
            <mxPoint x="-120.19999999999999" y="350" as="sourcePoint" />
            <mxPoint x="110" y="460" as="targetPoint" />
            <Array as="points" />
          </mxGeometry>
        </mxCell>
        <mxCell id="yDZhHcUlwSO8KXRDxBnM-7" value="(Je wahrscheinlicher eine Wild Magic ist, desto häufiger erscheint sie in der Liste)" style="text;html=1;strokeColor=none;fillColor=none;align=center;verticalAlign=middle;whiteSpace=wrap;rounded=0;" parent="GL0XK427SejdCRj76ISj-10" vertex="1">
          <mxGeometry x="180" y="510" width="150" height="60" as="geometry" />
        </mxCell>
        <mxCell id="yDZhHcUlwSO8KXRDxBnM-10" value="WM Instanzen -&amp;nbsp;Gewichtet" style="text;html=1;strokeColor=none;fillColor=none;align=center;verticalAlign=middle;whiteSpace=wrap;rounded=0;" parent="GL0XK427SejdCRj76ISj-10" vertex="1">
          <mxGeometry x="110" y="570" width="160" height="30" as="geometry" />
        </mxCell>
        <mxCell id="yDZhHcUlwSO8KXRDxBnM-11" value="n Elemente auswählen, mit n = |Glückslevel| + 1" style="rounded=0;whiteSpace=wrap;html=1;" parent="GL0XK427SejdCRj76ISj-10" vertex="1">
          <mxGeometry x="50" y="600" width="120" height="60" as="geometry" />
        </mxCell>
        <mxCell id="yDZhHcUlwSO8KXRDxBnM-13" value="" style="endArrow=classic;html=1;rounded=0;entryX=0.5;entryY=0;entryDx=0;entryDy=0;" parent="GL0XK427SejdCRj76ISj-10" source="yDZhHcUlwSO8KXRDxBnM-11" edge="1">
          <mxGeometry width="50" height="50" relative="1" as="geometry">
            <mxPoint x="109.60000000000002" y="700" as="sourcePoint" />
            <mxPoint x="109.60000000000002" y="730" as="targetPoint" />
            <Array as="points" />
          </mxGeometry>
        </mxCell>
        <mxCell id="yDZhHcUlwSO8KXRDxBnM-15" value="WM Instanzen -&amp;nbsp;Auswahl" style="text;html=1;strokeColor=none;fillColor=none;align=center;verticalAlign=middle;whiteSpace=wrap;rounded=0;" parent="GL0XK427SejdCRj76ISj-10" vertex="1">
          <mxGeometry x="110" y="660" width="160" height="30" as="geometry" />
        </mxCell>
        <mxCell id="yDZhHcUlwSO8KXRDxBnM-17" value="Glückslevel &lt;br&gt;&amp;gt;= 0" style="strokeWidth=2;html=1;shape=mxgraph.flowchart.decision;whiteSpace=wrap;" parent="GL0XK427SejdCRj76ISj-10" vertex="1">
          <mxGeometry x="60" y="690" width="100" height="100" as="geometry" />
        </mxCell>
        <mxCell id="yDZhHcUlwSO8KXRDxBnM-18" value="Beste Wild Magic wählen " style="rounded=0;whiteSpace=wrap;html=1;" parent="GL0XK427SejdCRj76ISj-10" vertex="1">
          <mxGeometry x="50" y="820" width="120" height="60" as="geometry" />
        </mxCell>
        <mxCell id="yDZhHcUlwSO8KXRDxBnM-19" value="Schlechteste Wild Magic wählen" style="rounded=0;whiteSpace=wrap;html=1;" parent="GL0XK427SejdCRj76ISj-10" vertex="1">
          <mxGeometry x="195" y="820" width="120" height="60" as="geometry" />
        </mxCell>
        <mxCell id="yDZhHcUlwSO8KXRDxBnM-21" value="" style="endArrow=classic;html=1;rounded=0;" parent="GL0XK427SejdCRj76ISj-10" source="yDZhHcUlwSO8KXRDxBnM-17" target="yDZhHcUlwSO8KXRDxBnM-18" edge="1">
          <mxGeometry width="50" height="50" relative="1" as="geometry">
            <mxPoint x="110" y="790" as="sourcePoint" />
            <mxPoint x="110" y="820" as="targetPoint" />
            <Array as="points" />
          </mxGeometry>
        </mxCell>
        <mxCell id="yDZhHcUlwSO8KXRDxBnM-22" value="ja" style="text;html=1;strokeColor=none;fillColor=none;align=center;verticalAlign=middle;whiteSpace=wrap;rounded=0;" parent="GL0XK427SejdCRj76ISj-10" vertex="1">
          <mxGeometry x="110" y="790" width="30" height="30" as="geometry" />
        </mxCell>
        <mxCell id="yDZhHcUlwSO8KXRDxBnM-24" value="" style="endArrow=classic;html=1;rounded=0;exitX=1;exitY=0.5;exitDx=0;exitDy=0;exitPerimeter=0;" parent="GL0XK427SejdCRj76ISj-10" source="yDZhHcUlwSO8KXRDxBnM-17" edge="1">
          <mxGeometry width="50" height="50" relative="1" as="geometry">
            <mxPoint x="120" y="800" as="sourcePoint" />
            <mxPoint x="250" y="820" as="targetPoint" />
            <Array as="points">
              <mxPoint x="250" y="740" />
            </Array>
          </mxGeometry>
        </mxCell>
        <mxCell id="yDZhHcUlwSO8KXRDxBnM-25" value="nein" style="text;html=1;strokeColor=none;fillColor=none;align=center;verticalAlign=middle;whiteSpace=wrap;rounded=0;" parent="GL0XK427SejdCRj76ISj-10" vertex="1">
          <mxGeometry x="160" y="710" width="30" height="30" as="geometry" />
        </mxCell>
        <mxCell id="yDZhHcUlwSO8KXRDxBnM-29" value="WM Instanz" style="text;html=1;strokeColor=none;fillColor=none;align=center;verticalAlign=middle;whiteSpace=wrap;rounded=0;" parent="GL0XK427SejdCRj76ISj-10" vertex="1">
          <mxGeometry x="10" y="880" width="70" height="30" as="geometry" />
        </mxCell>
        <mxCell id="vHbI4dkiorkBbuAbRPiR-5" value="Alle Wild Magic Instanzen" style="text;html=1;strokeColor=none;fillColor=none;align=center;verticalAlign=middle;whiteSpace=wrap;rounded=0;" parent="GL0XK427SejdCRj76ISj-10" vertex="1">
          <mxGeometry x="-110" y="330" width="90" height="30" as="geometry" />
        </mxCell>
        <mxCell id="vHbI4dkiorkBbuAbRPiR-1" value="" style="endArrow=classic;html=1;rounded=0;entryX=0;entryY=0.5;entryDx=0;entryDy=0;exitX=0.5;exitY=1;exitDx=0;exitDy=0;" parent="GL0XK427SejdCRj76ISj-10" target="vHbI4dkiorkBbuAbRPiR-4" edge="1">
          <mxGeometry width="50" height="50" relative="1" as="geometry">
            <mxPoint x="-130.2" y="300" as="sourcePoint" />
            <mxPoint x="-130.2" y="340" as="targetPoint" />
            <Array as="points">
              <mxPoint x="-130" y="360" />
            </Array>
          </mxGeometry>
        </mxCell>
        <mxCell id="vHbI4dkiorkBbuAbRPiR-4" value="&quot;Güteklasse&quot; berechnen" style="rounded=0;whiteSpace=wrap;html=1;" parent="GL0XK427SejdCRj76ISj-10" vertex="1">
          <mxGeometry x="50" y="330" width="120" height="60" as="geometry" />
        </mxCell>
        <mxCell id="yDZhHcUlwSO8KXRDxBnM-9" value="" style="endArrow=classic;html=1;rounded=0;exitX=0.5;exitY=1;exitDx=0;exitDy=0;" parent="1" source="yDZhHcUlwSO8KXRDxBnM-6" edge="1">
          <mxGeometry width="50" height="50" relative="1" as="geometry">
            <mxPoint x="510" y="710" as="sourcePoint" />
            <mxPoint x="500" y="660" as="targetPoint" />
            <Array as="points" />
          </mxGeometry>
        </mxCell>
      </root>
    </mxGraphModel>
  </diagram>
</mxfile>
